<svg width="403" height="252" viewBox="0 0 403 252" fill="none" xmlns="http://www.w3.org/2000/svg">
<path d="M2.02465 3.89929L2.08013 3.84372L1.54049 3.51245C0.413066 2.82033 0.903782 0.984375 2.29328 0.984375H400.664C401.881 0.984375 402.489 2.47015 401.629 3.33133L154.695 250.613L155.049 250.966L154.695 250.613C153.838 251.472 152.353 250.868 152.353 249.646V249.645L152.201 126.411C152.201 126.411 152.201 126.411 152.201 126.411C152.202 124.513 152.959 122.709 154.286 121.38L218.442 57.1211L219.294 56.2678H218.088H87.4446C86.1186 56.2678 84.7905 55.888 83.6527 55.1758L2.02465 3.89929Z" stroke="url(#paint0_linear_6942_156702)" stroke-opacity="0.1"/>
<defs>
<linearGradient id="paint0_linear_6942_156702" x1="97.2643" y1="-10.6125" x2="430.702" y2="-47.052" gradientUnits="userSpaceOnUse">
<stop offset="0.0874944" stop-color="#161D29"/>
<stop offset="1" stop-color="#79a6d1"/>
</linearGradient>
</defs>
</svg>
